<svg width="66" height="81" viewBox="0 0 66 81" fill="none" xmlns="http://www.w3.org/2000/svg">
<path d="M33 12.6362C30.0036 9.88103 26.0815 8.35187 22.0109 8.35175C19.8564 8.35399 17.7236 8.78228 15.7353 9.61198C13.7469 10.4417 11.9423 11.6564 10.4252 13.1862C3.95445 19.6845 3.9572 29.8485 10.4307 36.3192L30.5937 56.4822C31.0612 57.3045 31.9632 57.8352 33 57.8352C33.4256 57.8311 33.8444 57.7272 34.2227 57.5319C34.601 57.3365 34.9281 57.0552 35.1779 56.7105L55.5692 36.3192C62.0427 29.8457 62.0427 19.6845 55.5637 13.1752C54.0474 11.6482 52.2442 10.436 50.2578 9.60817C48.2714 8.78039 46.1409 8.35339 43.989 8.35175C39.9185 8.35241 35.9966 9.8815 33 12.6362ZM51.6752 17.0637C55.9735 21.384 55.9762 28.1325 51.6807 32.4307L33 51.1115L14.3192 32.4307C10.0237 28.1325 10.0264 21.384 14.3137 17.0747C16.4037 14.9957 19.1372 13.8517 22.0109 13.8517C24.8847 13.8517 27.6072 14.9957 29.6807 17.0692L31.0557 18.4442C31.3109 18.6998 31.6139 18.9026 31.9475 19.041C32.2812 19.1793 32.6388 19.2505 33 19.2505C33.3611 19.2505 33.7187 19.1793 34.0524 19.041C34.386 18.9026 34.689 18.6998 34.9442 18.4442L36.3192 17.0692C40.4772 12.9195 47.5227 12.9305 51.6752 17.0637Z" fill="white"/>
<path d="M33 27.6362C30.0036 24.881 26.0815 23.3519 22.0109 23.3517C19.8564 23.354 17.7236 23.7823 15.7353 24.612C13.7469 25.4417 11.9423 26.6564 10.4252 28.1862C3.95445 34.6845 3.9572 44.8485 10.4307 51.3192L30.5937 71.4822C31.0612 72.3045 31.9632 72.8352 33 72.8352C33.4256 72.8311 33.8444 72.7272 34.2227 72.5319C34.601 72.3365 34.9281 72.0552 35.1779 71.7105L55.5692 51.3192C62.0427 44.8457 62.0427 34.6845 55.5637 28.1752C54.0474 26.6482 52.2442 25.436 50.2578 24.6082C48.2714 23.7804 46.1409 23.3534 43.989 23.3517C39.9185 23.3524 35.9966 24.8815 33 27.6362ZM51.6752 32.0637C55.9735 36.384 55.9762 43.1325 51.6807 47.4307L33 66.1115L14.3192 47.4307C10.0237 43.1325 10.0264 36.384 14.3137 32.0747C16.4037 29.9957 19.1372 28.8517 22.0109 28.8517C24.8847 28.8517 27.6072 29.9957 29.6807 32.0692L31.0557 33.4442C31.3109 33.6998 31.6139 33.9026 31.9475 34.041C32.2812 34.1793 32.6388 34.2505 33 34.2505C33.3611 34.2505 33.7187 34.1793 34.0524 34.041C34.386 33.9026 34.689 33.6998 34.9442 33.4442L36.3192 32.0692C40.4772 27.9195 47.5227 27.9305 51.6752 32.0637Z" fill="white"/>
</svg>
