<svg width="56" height="56" viewBox="0 0 56 56" fill="none" xmlns="http://www.w3.org/2000/svg">
<path d="M48.8764 19.3782C48.8528 17.611 48.522 15.8614 47.8987 14.2076C47.3582 12.8126 46.5326 11.5457 45.4748 10.4878C44.4169 9.42998 43.15 8.60442 41.755 8.0639C40.1225 7.45107 38.3978 7.1197 36.6544 7.0839C34.4097 6.98357 33.698 6.95557 28 6.95557C22.302 6.95557 21.5717 6.95557 19.3434 7.0839C17.6007 7.11996 15.8769 7.45133 14.245 8.0639C12.8498 8.60404 11.5828 9.42947 10.5249 10.4874C9.46695 11.5453 8.64152 12.8124 8.10138 14.2076C7.48731 15.8389 7.15666 17.5632 7.12371 19.3059C7.02338 21.5529 6.99304 22.2646 6.99304 27.9626C6.99304 33.6606 6.99304 34.3886 7.12371 36.6192C7.15871 38.3646 7.48771 40.0866 8.10138 41.7222C8.64242 43.117 9.46847 44.3836 10.5267 45.441C11.585 46.4985 12.8522 47.3236 14.2474 47.8636C15.8747 48.501 17.5989 48.8561 19.3457 48.9136C21.5927 49.0139 22.3044 49.0442 28.0024 49.0442C33.7004 49.0442 34.4307 49.0442 36.659 48.9136C38.4024 48.8792 40.1272 48.5486 41.7597 47.9359C43.1543 47.3948 44.4209 46.569 45.4787 45.5112C46.5364 44.4534 47.3622 43.1868 47.9034 41.7922C48.517 40.1589 48.846 38.4369 48.881 36.6892C48.9814 34.4446 49.0117 33.7329 49.0117 28.0326C49.007 22.3346 49.007 21.6112 48.8764 19.3782ZM27.986 38.7379C22.0267 38.7379 17.199 33.9102 17.199 27.9509C17.199 21.9916 22.0267 17.1639 27.986 17.1639C30.8469 17.1639 33.5906 18.3004 35.6136 20.3233C37.6366 22.3463 38.773 25.09 38.773 27.9509C38.773 30.8118 37.6366 33.5555 35.6136 35.5785C33.5906 37.6014 30.8469 38.7379 27.986 38.7379ZM39.2024 19.2802C38.872 19.2805 38.5447 19.2157 38.2394 19.0894C37.9341 18.9631 37.6567 18.7778 37.4231 18.5442C37.1895 18.3106 37.0042 18.0332 36.8779 17.7278C36.7516 17.4225 36.6867 17.0953 36.687 16.7649C36.687 16.4347 36.7521 16.1078 36.8784 15.8028C37.0048 15.4977 37.19 15.2206 37.4234 14.9871C37.6569 14.7537 37.934 14.5685 38.2391 14.4421C38.5441 14.3158 38.871 14.2507 39.2012 14.2507C39.5314 14.2507 39.8583 14.3158 40.1633 14.4421C40.4684 14.5685 40.7455 14.7537 40.979 14.9871C41.2125 15.2206 41.3976 15.4977 41.524 15.8028C41.6503 16.1078 41.7154 16.4347 41.7154 16.7649C41.7154 18.1556 40.5907 19.2802 39.2024 19.2802Z" fill="#FB908B"/>
<path d="M27.9861 34.9581C31.8559 34.9581 34.9931 31.821 34.9931 27.9511C34.9931 24.0812 31.8559 20.9441 27.9861 20.9441C24.1162 20.9441 20.9791 24.0812 20.9791 27.9511C20.9791 31.821 24.1162 34.9581 27.9861 34.9581Z" fill="#FB908B"/>
</svg>
